# xmcd
#
# Track frame offsets:
#	182
#	17110
#	34250
#	58557
#
# Disc length: 1073 seconds
#
# Revision: 0
# Processed by: cddbd v1.5.2PL0 Copyright (c) Steve Scherf et al.
# Submitted via: audiograbber 1.83.01
#
DISCID=2c042f04
DTITLE=R.I.P.ULI Feat. Hape Kerkeling  - Helsinki Is Hell [CDM)
DYEAR=1999
DGENRE=Comedy
TTITLE0=Helsinki Is Hell (Video Edit)
TTITLE1=Helsinki Is Hell (Radio Edit)
TTITLE2=Helsinki Is Hell (Sauna Aufguﬂ)
TTITLE3=Helsinki Is Hell (H‰kkinnen Remember Monza Mix)
EXTD=TR.
EXTT0=
EXTT1=
EXTT2=
EXTT3=
PLAYORDER=
